<mxfile host="app.diagrams.net" modified="2024-05-19T16:03:10.977Z" agent="Mozilla/5.0 (Windows NT 10.0; Win64; x64) AppleWebKit/537.36 (KHTML, like Gecko) Chrome/124.0.0.0 Safari/537.36" etag="EG_TJIbKyUD2hUwfXMTb" version="24.4.4" type="device">
  <diagram name="PÃ gina-1" id="8abpHyJs1kc1G5gvocYW">
    <mxGraphModel dx="1591" dy="620" grid="1" gridSize="10" guides="1" tooltips="1" connect="1" arrows="1" fold="1" page="1" pageScale="1" pageWidth="827" pageHeight="1169" math="0" shadow="0">
      <root>
        <mxCell id="0" />
        <mxCell id="1" parent="0" />
        <mxCell id="pSaJIkGriDd8Vi6PSLmC-13" value="" style="edgeStyle=orthogonalEdgeStyle;rounded=0;orthogonalLoop=1;jettySize=auto;html=1;exitX=1.02;exitY=0.836;exitDx=0;exitDy=0;exitPerimeter=0;" parent="1" source="pSaJIkGriDd8Vi6PSLmC-1" edge="1">
          <mxGeometry relative="1" as="geometry">
            <mxPoint x="390" y="100" as="targetPoint" />
            <Array as="points" />
            <mxPoint x="190" y="100" as="sourcePoint" />
          </mxGeometry>
        </mxCell>
        <mxCell id="pSaJIkGriDd8Vi6PSLmC-20" value="Vs" style="edgeLabel;html=1;align=center;verticalAlign=middle;resizable=0;points=[];" parent="pSaJIkGriDd8Vi6PSLmC-13" vertex="1" connectable="0">
          <mxGeometry x="-0.1833" y="1" relative="1" as="geometry">
            <mxPoint x="9" as="offset" />
          </mxGeometry>
        </mxCell>
        <mxCell id="pSaJIkGriDd8Vi6PSLmC-1" value="APPS1" style="rounded=0;whiteSpace=wrap;html=1;" parent="1" vertex="1">
          <mxGeometry x="60" y="50" width="120" height="60" as="geometry" />
        </mxCell>
        <mxCell id="pSaJIkGriDd8Vi6PSLmC-2" value="APPS2" style="rounded=0;whiteSpace=wrap;html=1;" parent="1" vertex="1">
          <mxGeometry x="60" y="130" width="120" height="60" as="geometry" />
        </mxCell>
        <mxCell id="pSaJIkGriDd8Vi6PSLmC-3" value="Brake Sensor" style="rounded=0;whiteSpace=wrap;html=1;" parent="1" vertex="1">
          <mxGeometry x="60" y="210" width="120" height="60" as="geometry" />
        </mxCell>
        <mxCell id="pSaJIkGriDd8Vi6PSLmC-4" value="Steering Sensor" style="rounded=0;whiteSpace=wrap;html=1;" parent="1" vertex="1">
          <mxGeometry x="60" y="290" width="120" height="60" as="geometry" />
        </mxCell>
        <mxCell id="pSaJIkGriDd8Vi6PSLmC-5" value="Susp F L" style="rounded=0;whiteSpace=wrap;html=1;" parent="1" vertex="1">
          <mxGeometry x="60" y="370" width="120" height="60" as="geometry" />
        </mxCell>
        <mxCell id="pSaJIkGriDd8Vi6PSLmC-6" value="Susp F R" style="rounded=0;whiteSpace=wrap;html=1;" parent="1" vertex="1">
          <mxGeometry x="60" y="450" width="120" height="60" as="geometry" />
        </mxCell>
        <mxCell id="pSaJIkGriDd8Vi6PSLmC-8" value="&lt;h1&gt;&lt;font style=&quot;font-size: 31px;&quot; face=&quot;Courier New&quot;&gt;ETRX_FECU&lt;/font&gt;&lt;/h1&gt;" style="text;html=1;strokeColor=none;fillColor=none;align=center;verticalAlign=middle;whiteSpace=wrap;rounded=0;" parent="1" vertex="1">
          <mxGeometry x="610" y="20" width="210" height="60" as="geometry" />
        </mxCell>
        <mxCell id="pSaJIkGriDd8Vi6PSLmC-51" value="Fuse" style="rounded=0;whiteSpace=wrap;html=1;" parent="1" vertex="1">
          <mxGeometry x="260" y="50" width="50" height="20" as="geometry" />
        </mxCell>
        <mxCell id="pSaJIkGriDd8Vi6PSLmC-53" value="Shield" style="rounded=0;whiteSpace=wrap;html=1;" parent="1" vertex="1">
          <mxGeometry x="390" y="50" width="120" height="600" as="geometry" />
        </mxCell>
        <mxCell id="pSaJIkGriDd8Vi6PSLmC-72" value="" style="endArrow=classic;html=1;rounded=0;exitX=1;exitY=0.25;exitDx=0;exitDy=0;" parent="1" edge="1">
          <mxGeometry width="50" height="50" relative="1" as="geometry">
            <mxPoint x="180" y="340" as="sourcePoint" />
            <mxPoint x="390" y="340" as="targetPoint" />
          </mxGeometry>
        </mxCell>
        <mxCell id="pSaJIkGriDd8Vi6PSLmC-102" value="Vs" style="edgeLabel;html=1;align=center;verticalAlign=middle;resizable=0;points=[];" parent="pSaJIkGriDd8Vi6PSLmC-72" vertex="1" connectable="0">
          <mxGeometry x="-0.056" relative="1" as="geometry">
            <mxPoint as="offset" />
          </mxGeometry>
        </mxCell>
        <mxCell id="pSaJIkGriDd8Vi6PSLmC-74" value="" style="endArrow=none;html=1;rounded=0;entryX=0;entryY=0.5;entryDx=0;entryDy=0;exitX=0.998;exitY=0.17;exitDx=0;exitDy=0;exitPerimeter=0;" parent="1" source="pSaJIkGriDd8Vi6PSLmC-1" target="pSaJIkGriDd8Vi6PSLmC-51" edge="1">
          <mxGeometry width="50" height="50" relative="1" as="geometry">
            <mxPoint x="280" y="270" as="sourcePoint" />
            <mxPoint x="330" y="220" as="targetPoint" />
          </mxGeometry>
        </mxCell>
        <mxCell id="pSaJIkGriDd8Vi6PSLmC-75" value="" style="endArrow=none;html=1;rounded=0;exitX=1;exitY=0.5;exitDx=0;exitDy=0;" parent="1" source="pSaJIkGriDd8Vi6PSLmC-51" edge="1">
          <mxGeometry width="50" height="50" relative="1" as="geometry">
            <mxPoint x="310" y="110" as="sourcePoint" />
            <mxPoint x="390" y="60" as="targetPoint" />
          </mxGeometry>
        </mxCell>
        <mxCell id="pSaJIkGriDd8Vi6PSLmC-76" value="+5V" style="edgeLabel;html=1;align=center;verticalAlign=middle;resizable=0;points=[];" parent="pSaJIkGriDd8Vi6PSLmC-75" vertex="1" connectable="0">
          <mxGeometry x="-0.0803" relative="1" as="geometry">
            <mxPoint as="offset" />
          </mxGeometry>
        </mxCell>
        <mxCell id="pSaJIkGriDd8Vi6PSLmC-77" value="" style="endArrow=none;html=1;rounded=0;exitX=1;exitY=0.5;exitDx=0;exitDy=0;" parent="1" source="pSaJIkGriDd8Vi6PSLmC-1" edge="1">
          <mxGeometry width="50" height="50" relative="1" as="geometry">
            <mxPoint x="280" y="110" as="sourcePoint" />
            <mxPoint x="390" y="80" as="targetPoint" />
          </mxGeometry>
        </mxCell>
        <mxCell id="pSaJIkGriDd8Vi6PSLmC-79" value="GND" style="edgeLabel;html=1;align=center;verticalAlign=middle;resizable=0;points=[];" parent="pSaJIkGriDd8Vi6PSLmC-77" vertex="1" connectable="0">
          <mxGeometry x="-0.1414" relative="1" as="geometry">
            <mxPoint x="10" as="offset" />
          </mxGeometry>
        </mxCell>
        <mxCell id="pSaJIkGriDd8Vi6PSLmC-80" value="" style="edgeStyle=orthogonalEdgeStyle;rounded=0;orthogonalLoop=1;jettySize=auto;html=1;entryX=0;entryY=0.106;entryDx=0;entryDy=0;entryPerimeter=0;" parent="1" edge="1">
          <mxGeometry relative="1" as="geometry">
            <mxPoint x="180" y="180" as="sourcePoint" />
            <mxPoint x="390" y="180" as="targetPoint" />
            <Array as="points">
              <mxPoint x="220" y="180" />
            </Array>
          </mxGeometry>
        </mxCell>
        <mxCell id="pSaJIkGriDd8Vi6PSLmC-81" value="Vs" style="edgeLabel;html=1;align=center;verticalAlign=middle;resizable=0;points=[];" parent="pSaJIkGriDd8Vi6PSLmC-80" vertex="1" connectable="0">
          <mxGeometry x="-0.1833" y="1" relative="1" as="geometry">
            <mxPoint x="9" as="offset" />
          </mxGeometry>
        </mxCell>
        <mxCell id="pSaJIkGriDd8Vi6PSLmC-82" value="Fuse" style="rounded=0;whiteSpace=wrap;html=1;" parent="1" vertex="1">
          <mxGeometry x="260" y="130" width="50" height="20" as="geometry" />
        </mxCell>
        <mxCell id="pSaJIkGriDd8Vi6PSLmC-83" value="" style="endArrow=none;html=1;rounded=0;entryX=0;entryY=0.5;entryDx=0;entryDy=0;exitX=0.998;exitY=0.17;exitDx=0;exitDy=0;exitPerimeter=0;" parent="1" target="pSaJIkGriDd8Vi6PSLmC-82" edge="1">
          <mxGeometry width="50" height="50" relative="1" as="geometry">
            <mxPoint x="180" y="140" as="sourcePoint" />
            <mxPoint x="330" y="300" as="targetPoint" />
          </mxGeometry>
        </mxCell>
        <mxCell id="pSaJIkGriDd8Vi6PSLmC-84" value="" style="endArrow=none;html=1;rounded=0;exitX=1;exitY=0.5;exitDx=0;exitDy=0;entryX=-0.001;entryY=0.021;entryDx=0;entryDy=0;entryPerimeter=0;" parent="1" source="pSaJIkGriDd8Vi6PSLmC-82" edge="1">
          <mxGeometry width="50" height="50" relative="1" as="geometry">
            <mxPoint x="310" y="190" as="sourcePoint" />
            <mxPoint x="390" y="140" as="targetPoint" />
          </mxGeometry>
        </mxCell>
        <mxCell id="pSaJIkGriDd8Vi6PSLmC-85" value="+5V" style="edgeLabel;html=1;align=center;verticalAlign=middle;resizable=0;points=[];" parent="pSaJIkGriDd8Vi6PSLmC-84" vertex="1" connectable="0">
          <mxGeometry x="-0.0803" relative="1" as="geometry">
            <mxPoint as="offset" />
          </mxGeometry>
        </mxCell>
        <mxCell id="pSaJIkGriDd8Vi6PSLmC-86" value="" style="endArrow=none;html=1;rounded=0;exitX=1;exitY=0.5;exitDx=0;exitDy=0;" parent="1" edge="1">
          <mxGeometry width="50" height="50" relative="1" as="geometry">
            <mxPoint x="180" y="160" as="sourcePoint" />
            <mxPoint x="390" y="160" as="targetPoint" />
          </mxGeometry>
        </mxCell>
        <mxCell id="pSaJIkGriDd8Vi6PSLmC-87" value="GND" style="edgeLabel;html=1;align=center;verticalAlign=middle;resizable=0;points=[];" parent="pSaJIkGriDd8Vi6PSLmC-86" vertex="1" connectable="0">
          <mxGeometry x="-0.1414" relative="1" as="geometry">
            <mxPoint x="10" as="offset" />
          </mxGeometry>
        </mxCell>
        <mxCell id="pSaJIkGriDd8Vi6PSLmC-88" value="" style="edgeStyle=orthogonalEdgeStyle;rounded=0;orthogonalLoop=1;jettySize=auto;html=1;entryX=0;entryY=0.106;entryDx=0;entryDy=0;entryPerimeter=0;" parent="1" edge="1">
          <mxGeometry relative="1" as="geometry">
            <mxPoint x="180" y="260" as="sourcePoint" />
            <mxPoint x="390" y="260" as="targetPoint" />
            <Array as="points">
              <mxPoint x="220" y="260" />
            </Array>
          </mxGeometry>
        </mxCell>
        <mxCell id="pSaJIkGriDd8Vi6PSLmC-89" value="Vs" style="edgeLabel;html=1;align=center;verticalAlign=middle;resizable=0;points=[];" parent="pSaJIkGriDd8Vi6PSLmC-88" vertex="1" connectable="0">
          <mxGeometry x="-0.1833" y="1" relative="1" as="geometry">
            <mxPoint x="9" as="offset" />
          </mxGeometry>
        </mxCell>
        <mxCell id="pSaJIkGriDd8Vi6PSLmC-90" value="Fuse" style="rounded=0;whiteSpace=wrap;html=1;" parent="1" vertex="1">
          <mxGeometry x="260" y="210" width="50" height="20" as="geometry" />
        </mxCell>
        <mxCell id="pSaJIkGriDd8Vi6PSLmC-91" value="" style="endArrow=none;html=1;rounded=0;entryX=0;entryY=0.5;entryDx=0;entryDy=0;exitX=0.998;exitY=0.17;exitDx=0;exitDy=0;exitPerimeter=0;" parent="1" target="pSaJIkGriDd8Vi6PSLmC-90" edge="1">
          <mxGeometry width="50" height="50" relative="1" as="geometry">
            <mxPoint x="180" y="220" as="sourcePoint" />
            <mxPoint x="330" y="380" as="targetPoint" />
          </mxGeometry>
        </mxCell>
        <mxCell id="pSaJIkGriDd8Vi6PSLmC-92" value="" style="endArrow=none;html=1;rounded=0;exitX=1;exitY=0.5;exitDx=0;exitDy=0;entryX=-0.001;entryY=0.021;entryDx=0;entryDy=0;entryPerimeter=0;" parent="1" source="pSaJIkGriDd8Vi6PSLmC-90" edge="1">
          <mxGeometry width="50" height="50" relative="1" as="geometry">
            <mxPoint x="310" y="270" as="sourcePoint" />
            <mxPoint x="390" y="220" as="targetPoint" />
          </mxGeometry>
        </mxCell>
        <mxCell id="pSaJIkGriDd8Vi6PSLmC-93" value="+5V" style="edgeLabel;html=1;align=center;verticalAlign=middle;resizable=0;points=[];" parent="pSaJIkGriDd8Vi6PSLmC-92" vertex="1" connectable="0">
          <mxGeometry x="-0.0803" relative="1" as="geometry">
            <mxPoint as="offset" />
          </mxGeometry>
        </mxCell>
        <mxCell id="pSaJIkGriDd8Vi6PSLmC-94" value="" style="endArrow=none;html=1;rounded=0;exitX=1;exitY=0.5;exitDx=0;exitDy=0;" parent="1" edge="1">
          <mxGeometry width="50" height="50" relative="1" as="geometry">
            <mxPoint x="180" y="240" as="sourcePoint" />
            <mxPoint x="390" y="240" as="targetPoint" />
          </mxGeometry>
        </mxCell>
        <mxCell id="pSaJIkGriDd8Vi6PSLmC-95" value="GND" style="edgeLabel;html=1;align=center;verticalAlign=middle;resizable=0;points=[];" parent="pSaJIkGriDd8Vi6PSLmC-94" vertex="1" connectable="0">
          <mxGeometry x="-0.1414" relative="1" as="geometry">
            <mxPoint x="10" as="offset" />
          </mxGeometry>
        </mxCell>
        <mxCell id="pSaJIkGriDd8Vi6PSLmC-97" value="" style="endArrow=none;html=1;rounded=0;exitX=0.998;exitY=0.17;exitDx=0;exitDy=0;exitPerimeter=0;" parent="1" edge="1">
          <mxGeometry width="50" height="50" relative="1" as="geometry">
            <mxPoint x="180" y="300" as="sourcePoint" />
            <mxPoint x="390" y="300" as="targetPoint" />
          </mxGeometry>
        </mxCell>
        <mxCell id="pSaJIkGriDd8Vi6PSLmC-98" value="+5V" style="edgeLabel;html=1;align=center;verticalAlign=middle;resizable=0;points=[];" parent="pSaJIkGriDd8Vi6PSLmC-97" vertex="1" connectable="0">
          <mxGeometry x="-0.063" relative="1" as="geometry">
            <mxPoint as="offset" />
          </mxGeometry>
        </mxCell>
        <mxCell id="pSaJIkGriDd8Vi6PSLmC-100" value="" style="endArrow=none;html=1;rounded=0;exitX=0.998;exitY=0.17;exitDx=0;exitDy=0;exitPerimeter=0;" parent="1" edge="1">
          <mxGeometry width="50" height="50" relative="1" as="geometry">
            <mxPoint x="180" y="319.86" as="sourcePoint" />
            <mxPoint x="390" y="319.86" as="targetPoint" />
          </mxGeometry>
        </mxCell>
        <mxCell id="pSaJIkGriDd8Vi6PSLmC-101" value="GND" style="edgeLabel;html=1;align=center;verticalAlign=middle;resizable=0;points=[];" parent="pSaJIkGriDd8Vi6PSLmC-100" vertex="1" connectable="0">
          <mxGeometry x="-0.063" relative="1" as="geometry">
            <mxPoint x="7" as="offset" />
          </mxGeometry>
        </mxCell>
        <mxCell id="vzBS6e1Wo0oyNuKVXp0h-31" value="" style="edgeStyle=orthogonalEdgeStyle;rounded=0;orthogonalLoop=1;jettySize=auto;html=1;exitX=0.948;exitY=0.469;exitDx=0;exitDy=0;exitPerimeter=0;" parent="1" source="pSaJIkGriDd8Vi6PSLmC-105" target="pSaJIkGriDd8Vi6PSLmC-53" edge="1">
          <mxGeometry relative="1" as="geometry">
            <Array as="points">
              <mxPoint x="530" y="166" />
              <mxPoint x="530" y="166" />
            </Array>
          </mxGeometry>
        </mxCell>
        <mxCell id="vzBS6e1Wo0oyNuKVXp0h-33" value="Vin" style="edgeLabel;html=1;align=center;verticalAlign=middle;resizable=0;points=[];" parent="vzBS6e1Wo0oyNuKVXp0h-31" vertex="1" connectable="0">
          <mxGeometry x="0.0778" y="2" relative="1" as="geometry">
            <mxPoint as="offset" />
          </mxGeometry>
        </mxCell>
        <mxCell id="pSaJIkGriDd8Vi6PSLmC-105" value="" style="pointerEvents=1;verticalLabelPosition=bottom;shadow=0;dashed=0;align=center;html=1;verticalAlign=top;shape=mxgraph.electrical.resistors.resistor_2;rotation=90;" parent="1" vertex="1">
          <mxGeometry x="550" y="120" width="80" height="20" as="geometry" />
        </mxCell>
        <mxCell id="pSaJIkGriDd8Vi6PSLmC-106" value="" style="endArrow=none;html=1;rounded=0;entryX=1;entryY=0.5;entryDx=0;entryDy=0;entryPerimeter=0;" parent="1" target="pSaJIkGriDd8Vi6PSLmC-105" edge="1">
          <mxGeometry width="50" height="50" relative="1" as="geometry">
            <mxPoint x="610" y="200" as="sourcePoint" />
            <mxPoint x="650" y="150" as="targetPoint" />
          </mxGeometry>
        </mxCell>
        <mxCell id="pSaJIkGriDd8Vi6PSLmC-107" value="" style="endArrow=none;html=1;rounded=0;" parent="1" edge="1">
          <mxGeometry width="50" height="50" relative="1" as="geometry">
            <mxPoint x="590" y="240" as="sourcePoint" />
            <mxPoint x="590" y="200" as="targetPoint" />
          </mxGeometry>
        </mxCell>
        <mxCell id="pSaJIkGriDd8Vi6PSLmC-109" value="" style="endArrow=none;dashed=1;html=1;dashPattern=1 3;strokeWidth=2;rounded=0;" parent="1" edge="1">
          <mxGeometry width="50" height="50" relative="1" as="geometry">
            <mxPoint x="610" y="194.96" as="sourcePoint" />
            <mxPoint x="630" y="194.96" as="targetPoint" />
          </mxGeometry>
        </mxCell>
        <mxCell id="pSaJIkGriDd8Vi6PSLmC-110" value="" style="verticalLabelPosition=bottom;verticalAlign=top;html=1;shape=mxgraph.basic.half_circle;rotation=-90;" parent="1" vertex="1">
          <mxGeometry x="620" y="190" width="20" height="10" as="geometry" />
        </mxCell>
        <mxCell id="pSaJIkGriDd8Vi6PSLmC-116" value="Emergency Button" style="text;html=1;strokeColor=none;fillColor=none;align=center;verticalAlign=middle;whiteSpace=wrap;rounded=0;" parent="1" vertex="1">
          <mxGeometry x="640" y="180" width="110" height="30" as="geometry" />
        </mxCell>
        <mxCell id="gK3uB9BPYiLCSPlVEp5--1" value="R" style="text;html=1;strokeColor=none;fillColor=none;align=center;verticalAlign=middle;whiteSpace=wrap;rounded=0;" parent="1" vertex="1">
          <mxGeometry x="590" y="110" width="60" height="30" as="geometry" />
        </mxCell>
        <mxCell id="gK3uB9BPYiLCSPlVEp5--2" value="GND" style="pointerEvents=1;verticalLabelPosition=bottom;shadow=0;dashed=0;align=center;html=1;verticalAlign=top;shape=mxgraph.electrical.signal_sources.signal_ground;" parent="1" vertex="1">
          <mxGeometry x="575" y="240" width="30" height="20" as="geometry" />
        </mxCell>
        <mxCell id="vzBS6e1Wo0oyNuKVXp0h-1" value="&lt;span style=&quot;color: rgba(0, 0, 0, 0); font-family: monospace; font-size: 0px; text-align: start; background-color: rgb(251, 251, 251);&quot;&gt;%3CmxGraphModel%3E%3Croot%3E%3CmxCell%20id%3D%220%22%2F%3E%3CmxCell%20id%3D%221%22%20parent%3D%220%22%2F%3E%3CmxCell%20id%3D%222%22%20value%3D%22%22%20style%3D%22endArrow%3Dclassic%3Bhtml%3D1%3Brounded%3D0%3BexitX%3D1%3BexitY%3D0.25%3BexitDx%3D0%3BexitDy%3D0%3BentryX%3D-0.008%3BentryY%3D0.617%3BentryDx%3D0%3BentryDy%3D0%3BentryPerimeter%3D0%3B%22%20edge%3D%221%22%20parent%3D%221%22%3E%3CmxGeometry%20width%3D%2250%22%20height%3D%2250%22%20relative%3D%221%22%20as%3D%22geometry%22%3E%3CmxPoint%20x%3D%22180%22%20y%3D%22340%22%20as%3D%22sourcePoint%22%2F%3E%3CmxPoint%20x%3D%22389%22%20y%3D%22340%22%20as%3D%22targetPoint%22%2F%3E%3C%2FmxGeometry%3E%3C%2FmxCell%3E%3CmxCell%20id%3D%223%22%20value%3D%22Vs%22%20style%3D%22edgeLabel%3Bhtml%3D1%3Balign%3Dcenter%3BverticalAlign%3Dmiddle%3Bresizable%3D0%3Bpoints%3D%5B%5D%3B%22%20vertex%3D%221%22%20connectable%3D%220%22%20parent%3D%222%22%3E%3CmxGeometry%20x%3D%22-0.056%22%20relative%3D%221%22%20as%3D%22geometry%22%3E%3CmxPoint%20as%3D%22offset%22%2F%3E%3C%2FmxGeometry%3E%3C%2FmxCell%3E%3CmxCell%20id%3D%224%22%20value%3D%22%22%20style%3D%22endArrow%3Dnone%3Bhtml%3D1%3Brounded%3D0%3BexitX%3D0.998%3BexitY%3D0.17%3BexitDx%3D0%3BexitDy%3D0%3BexitPerimeter%3D0%3B%22%20edge%3D%221%22%20parent%3D%221%22%3E%3CmxGeometry%20width%3D%2250%22%20height%3D%2250%22%20relative%3D%221%22%20as%3D%22geometry%22%3E%3CmxPoint%20x%3D%22180%22%20y%3D%22300%22%20as%3D%22sourcePoint%22%2F%3E%3CmxPoint%20x%3D%22390%22%20y%3D%22300%22%20as%3D%22targetPoint%22%2F%3E%3C%2FmxGeometry%3E%3C%2FmxCell%3E%3CmxCell%20id%3D%225%22%20value%3D%22%2B5V%22%20style%3D%22edgeLabel%3Bhtml%3D1%3Balign%3Dcenter%3BverticalAlign%3Dmiddle%3Bresizable%3D0%3Bpoints%3D%5B%5D%3B%22%20vertex%3D%221%22%20connectable%3D%220%22%20parent%3D%224%22%3E%3CmxGeometry%20x%3D%22-0.063%22%20relative%3D%221%22%20as%3D%22geometry%22%3E%3CmxPoint%20as%3D%22offset%22%2F%3E%3C%2FmxGeometry%3E%3C%2FmxCell%3E%3CmxCell%20id%3D%226%22%20value%3D%22%22%20style%3D%22endArrow%3Dnone%3Bhtml%3D1%3Brounded%3D0%3BexitX%3D0.998%3BexitY%3D0.17%3BexitDx%3D0%3BexitDy%3D0%3BexitPerimeter%3D0%3B%22%20edge%3D%221%22%20parent%3D%221%22%3E%3CmxGeometry%20width%3D%2250%22%20height%3D%2250%22%20relative%3D%221%22%20as%3D%22geometry%22%3E%3CmxPoint%20x%3D%22180%22%20y%3D%22319.86%22%20as%3D%22sourcePoint%22%2F%3E%3CmxPoint%20x%3D%22390%22%20y%3D%22319.86%22%20as%3D%22targetPoint%22%2F%3E%3C%2FmxGeometry%3E%3C%2FmxCell%3E%3CmxCell%20id%3D%227%22%20value%3D%22GND%22%20style%3D%22edgeLabel%3Bhtml%3D1%3Balign%3Dcenter%3BverticalAlign%3Dmiddle%3Bresizable%3D0%3Bpoints%3D%5B%5D%3B%22%20vertex%3D%221%22%20connectable%3D%220%22%20parent%3D%226%22%3E%3CmxGeometry%20x%3D%22-0.063%22%20relative%3D%221%22%20as%3D%22geometry%22%3E%3CmxPoint%20x%3D%227%22%20as%3D%22offset%22%2F%3E%3C%2FmxGeometry%3E%3C%2FmxCell%3E%3C%2Froot%3E%3C%2FmxGraphModel%3E&lt;/span&gt;" style="endArrow=classic;html=1;rounded=0;exitX=1;exitY=0.25;exitDx=0;exitDy=0;entryX=-0.008;entryY=0.617;entryDx=0;entryDy=0;entryPerimeter=0;" parent="1" edge="1">
          <mxGeometry width="50" height="50" relative="1" as="geometry">
            <mxPoint x="180" y="419.5" as="sourcePoint" />
            <mxPoint x="389" y="419.5" as="targetPoint" />
          </mxGeometry>
        </mxCell>
        <mxCell id="vzBS6e1Wo0oyNuKVXp0h-2" value="Vs" style="edgeLabel;html=1;align=center;verticalAlign=middle;resizable=0;points=[];" parent="vzBS6e1Wo0oyNuKVXp0h-1" vertex="1" connectable="0">
          <mxGeometry x="-0.056" relative="1" as="geometry">
            <mxPoint as="offset" />
          </mxGeometry>
        </mxCell>
        <mxCell id="vzBS6e1Wo0oyNuKVXp0h-3" value="" style="endArrow=none;html=1;rounded=0;exitX=0.998;exitY=0.17;exitDx=0;exitDy=0;exitPerimeter=0;" parent="1" edge="1">
          <mxGeometry width="50" height="50" relative="1" as="geometry">
            <mxPoint x="180" y="379.5" as="sourcePoint" />
            <mxPoint x="390" y="379.5" as="targetPoint" />
          </mxGeometry>
        </mxCell>
        <mxCell id="vzBS6e1Wo0oyNuKVXp0h-4" value="+5V" style="edgeLabel;html=1;align=center;verticalAlign=middle;resizable=0;points=[];" parent="vzBS6e1Wo0oyNuKVXp0h-3" vertex="1" connectable="0">
          <mxGeometry x="-0.063" relative="1" as="geometry">
            <mxPoint as="offset" />
          </mxGeometry>
        </mxCell>
        <mxCell id="vzBS6e1Wo0oyNuKVXp0h-5" value="" style="endArrow=none;html=1;rounded=0;exitX=0.998;exitY=0.17;exitDx=0;exitDy=0;exitPerimeter=0;" parent="1" edge="1">
          <mxGeometry width="50" height="50" relative="1" as="geometry">
            <mxPoint x="180" y="399.36" as="sourcePoint" />
            <mxPoint x="390" y="399.36" as="targetPoint" />
          </mxGeometry>
        </mxCell>
        <mxCell id="vzBS6e1Wo0oyNuKVXp0h-6" value="GND" style="edgeLabel;html=1;align=center;verticalAlign=middle;resizable=0;points=[];" parent="vzBS6e1Wo0oyNuKVXp0h-5" vertex="1" connectable="0">
          <mxGeometry x="-0.063" relative="1" as="geometry">
            <mxPoint x="7" as="offset" />
          </mxGeometry>
        </mxCell>
        <mxCell id="vzBS6e1Wo0oyNuKVXp0h-7" value="" style="endArrow=classic;html=1;rounded=0;exitX=1;exitY=0.25;exitDx=0;exitDy=0;entryX=-0.008;entryY=0.617;entryDx=0;entryDy=0;entryPerimeter=0;" parent="1" edge="1">
          <mxGeometry width="50" height="50" relative="1" as="geometry">
            <mxPoint x="180" y="499.5" as="sourcePoint" />
            <mxPoint x="389" y="499.5" as="targetPoint" />
          </mxGeometry>
        </mxCell>
        <mxCell id="vzBS6e1Wo0oyNuKVXp0h-8" value="Vs" style="edgeLabel;html=1;align=center;verticalAlign=middle;resizable=0;points=[];" parent="vzBS6e1Wo0oyNuKVXp0h-7" vertex="1" connectable="0">
          <mxGeometry x="-0.056" relative="1" as="geometry">
            <mxPoint as="offset" />
          </mxGeometry>
        </mxCell>
        <mxCell id="vzBS6e1Wo0oyNuKVXp0h-9" value="" style="endArrow=none;html=1;rounded=0;exitX=0.998;exitY=0.17;exitDx=0;exitDy=0;exitPerimeter=0;" parent="1" edge="1">
          <mxGeometry width="50" height="50" relative="1" as="geometry">
            <mxPoint x="180" y="459.5" as="sourcePoint" />
            <mxPoint x="390" y="459.5" as="targetPoint" />
          </mxGeometry>
        </mxCell>
        <mxCell id="vzBS6e1Wo0oyNuKVXp0h-10" value="+5V" style="edgeLabel;html=1;align=center;verticalAlign=middle;resizable=0;points=[];" parent="vzBS6e1Wo0oyNuKVXp0h-9" vertex="1" connectable="0">
          <mxGeometry x="-0.063" relative="1" as="geometry">
            <mxPoint as="offset" />
          </mxGeometry>
        </mxCell>
        <mxCell id="vzBS6e1Wo0oyNuKVXp0h-11" value="" style="endArrow=none;html=1;rounded=0;exitX=0.998;exitY=0.17;exitDx=0;exitDy=0;exitPerimeter=0;" parent="1" edge="1">
          <mxGeometry width="50" height="50" relative="1" as="geometry">
            <mxPoint x="180" y="479.36" as="sourcePoint" />
            <mxPoint x="390" y="479.36" as="targetPoint" />
          </mxGeometry>
        </mxCell>
        <mxCell id="vzBS6e1Wo0oyNuKVXp0h-12" value="GND" style="edgeLabel;html=1;align=center;verticalAlign=middle;resizable=0;points=[];" parent="vzBS6e1Wo0oyNuKVXp0h-11" vertex="1" connectable="0">
          <mxGeometry x="-0.063" relative="1" as="geometry">
            <mxPoint x="7" as="offset" />
          </mxGeometry>
        </mxCell>
        <mxCell id="vzBS6e1Wo0oyNuKVXp0h-13" value="Breake pressure" style="rounded=0;whiteSpace=wrap;html=1;" parent="1" vertex="1">
          <mxGeometry x="60" y="525" width="120" height="60" as="geometry" />
        </mxCell>
        <mxCell id="vzBS6e1Wo0oyNuKVXp0h-14" value="" style="endArrow=classic;html=1;rounded=0;exitX=1;exitY=0.25;exitDx=0;exitDy=0;entryX=-0.008;entryY=0.617;entryDx=0;entryDy=0;entryPerimeter=0;" parent="1" edge="1">
          <mxGeometry width="50" height="50" relative="1" as="geometry">
            <mxPoint x="180" y="574.5" as="sourcePoint" />
            <mxPoint x="389" y="574.5" as="targetPoint" />
          </mxGeometry>
        </mxCell>
        <mxCell id="vzBS6e1Wo0oyNuKVXp0h-15" value="Vs" style="edgeLabel;html=1;align=center;verticalAlign=middle;resizable=0;points=[];" parent="vzBS6e1Wo0oyNuKVXp0h-14" vertex="1" connectable="0">
          <mxGeometry x="-0.056" relative="1" as="geometry">
            <mxPoint as="offset" />
          </mxGeometry>
        </mxCell>
        <mxCell id="vzBS6e1Wo0oyNuKVXp0h-16" value="" style="endArrow=none;html=1;rounded=0;exitX=0.998;exitY=0.17;exitDx=0;exitDy=0;exitPerimeter=0;" parent="1" edge="1">
          <mxGeometry width="50" height="50" relative="1" as="geometry">
            <mxPoint x="180" y="534.5" as="sourcePoint" />
            <mxPoint x="390" y="534.5" as="targetPoint" />
          </mxGeometry>
        </mxCell>
        <mxCell id="vzBS6e1Wo0oyNuKVXp0h-17" value="+5V" style="edgeLabel;html=1;align=center;verticalAlign=middle;resizable=0;points=[];" parent="vzBS6e1Wo0oyNuKVXp0h-16" vertex="1" connectable="0">
          <mxGeometry x="-0.063" relative="1" as="geometry">
            <mxPoint as="offset" />
          </mxGeometry>
        </mxCell>
        <mxCell id="vzBS6e1Wo0oyNuKVXp0h-18" value="" style="endArrow=none;html=1;rounded=0;exitX=0.998;exitY=0.17;exitDx=0;exitDy=0;exitPerimeter=0;" parent="1" edge="1">
          <mxGeometry width="50" height="50" relative="1" as="geometry">
            <mxPoint x="180" y="554.36" as="sourcePoint" />
            <mxPoint x="390" y="554.36" as="targetPoint" />
          </mxGeometry>
        </mxCell>
        <mxCell id="vzBS6e1Wo0oyNuKVXp0h-19" value="GND" style="edgeLabel;html=1;align=center;verticalAlign=middle;resizable=0;points=[];" parent="vzBS6e1Wo0oyNuKVXp0h-18" vertex="1" connectable="0">
          <mxGeometry x="-0.063" relative="1" as="geometry">
            <mxPoint x="7" as="offset" />
          </mxGeometry>
        </mxCell>
        <mxCell id="vzBS6e1Wo0oyNuKVXp0h-20" value="Speed" style="rounded=0;whiteSpace=wrap;html=1;" parent="1" vertex="1">
          <mxGeometry x="60" y="600" width="120" height="60" as="geometry" />
        </mxCell>
        <mxCell id="vzBS6e1Wo0oyNuKVXp0h-21" value="" style="endArrow=classic;html=1;rounded=0;exitX=1;exitY=0.25;exitDx=0;exitDy=0;entryX=-0.008;entryY=0.617;entryDx=0;entryDy=0;entryPerimeter=0;" parent="1" edge="1">
          <mxGeometry width="50" height="50" relative="1" as="geometry">
            <mxPoint x="180" y="649.5" as="sourcePoint" />
            <mxPoint x="389" y="649.5" as="targetPoint" />
          </mxGeometry>
        </mxCell>
        <mxCell id="vzBS6e1Wo0oyNuKVXp0h-22" value="Vs" style="edgeLabel;html=1;align=center;verticalAlign=middle;resizable=0;points=[];" parent="vzBS6e1Wo0oyNuKVXp0h-21" vertex="1" connectable="0">
          <mxGeometry x="-0.056" relative="1" as="geometry">
            <mxPoint as="offset" />
          </mxGeometry>
        </mxCell>
        <mxCell id="vzBS6e1Wo0oyNuKVXp0h-23" value="" style="endArrow=none;html=1;rounded=0;exitX=0.998;exitY=0.17;exitDx=0;exitDy=0;exitPerimeter=0;" parent="1" edge="1">
          <mxGeometry width="50" height="50" relative="1" as="geometry">
            <mxPoint x="180" y="609.5" as="sourcePoint" />
            <mxPoint x="390" y="609.5" as="targetPoint" />
          </mxGeometry>
        </mxCell>
        <mxCell id="vzBS6e1Wo0oyNuKVXp0h-24" value="+5V" style="edgeLabel;html=1;align=center;verticalAlign=middle;resizable=0;points=[];" parent="vzBS6e1Wo0oyNuKVXp0h-23" vertex="1" connectable="0">
          <mxGeometry x="-0.063" relative="1" as="geometry">
            <mxPoint as="offset" />
          </mxGeometry>
        </mxCell>
        <mxCell id="vzBS6e1Wo0oyNuKVXp0h-25" value="" style="endArrow=none;html=1;rounded=0;exitX=0.998;exitY=0.17;exitDx=0;exitDy=0;exitPerimeter=0;" parent="1" edge="1">
          <mxGeometry width="50" height="50" relative="1" as="geometry">
            <mxPoint x="180" y="629.36" as="sourcePoint" />
            <mxPoint x="390" y="629.36" as="targetPoint" />
          </mxGeometry>
        </mxCell>
        <mxCell id="vzBS6e1Wo0oyNuKVXp0h-26" value="GND" style="edgeLabel;html=1;align=center;verticalAlign=middle;resizable=0;points=[];" parent="vzBS6e1Wo0oyNuKVXp0h-25" vertex="1" connectable="0">
          <mxGeometry x="-0.063" relative="1" as="geometry">
            <mxPoint x="7" as="offset" />
          </mxGeometry>
        </mxCell>
        <mxCell id="vzBS6e1Wo0oyNuKVXp0h-28" value="V&lt;sub&gt;dd&lt;/sub&gt;" style="verticalLabelPosition=top;verticalAlign=bottom;shape=mxgraph.electrical.signal_sources.vdd;shadow=0;dashed=0;align=center;strokeWidth=1;fontSize=24;html=1;flipV=1;" parent="1" vertex="1">
          <mxGeometry x="582.5" y="80" width="15" height="10" as="geometry" />
        </mxCell>
        <mxCell id="vvp5qEtSRcYtaQGOktFU-1" value="Expansion connector" style="rounded=0;whiteSpace=wrap;html=1;" vertex="1" parent="1">
          <mxGeometry x="575" y="300" width="120" height="60" as="geometry" />
        </mxCell>
        <mxCell id="vvp5qEtSRcYtaQGOktFU-3" value="" style="endArrow=classic;startArrow=classic;html=1;rounded=0;entryX=0;entryY=0.5;entryDx=0;entryDy=0;" edge="1" parent="1" target="vvp5qEtSRcYtaQGOktFU-1">
          <mxGeometry width="50" height="50" relative="1" as="geometry">
            <mxPoint x="510" y="330" as="sourcePoint" />
            <mxPoint x="560" y="280" as="targetPoint" />
          </mxGeometry>
        </mxCell>
        <mxCell id="vvp5qEtSRcYtaQGOktFU-4" value="n" style="edgeLabel;html=1;align=center;verticalAlign=middle;resizable=0;points=[];" vertex="1" connectable="0" parent="vvp5qEtSRcYtaQGOktFU-3">
          <mxGeometry x="0.1128" y="-1" relative="1" as="geometry">
            <mxPoint y="-1" as="offset" />
          </mxGeometry>
        </mxCell>
        <mxCell id="vvp5qEtSRcYtaQGOktFU-5" value="~n" style="edgeLabel;html=1;align=center;verticalAlign=middle;resizable=0;points=[];" vertex="1" connectable="0" parent="vvp5qEtSRcYtaQGOktFU-3">
          <mxGeometry x="0.0462" relative="1" as="geometry">
            <mxPoint as="offset" />
          </mxGeometry>
        </mxCell>
        <mxCell id="vvp5qEtSRcYtaQGOktFU-7" value="" style="edgeStyle=orthogonalEdgeStyle;rounded=0;orthogonalLoop=1;jettySize=auto;html=1;" edge="1" parent="1" source="vvp5qEtSRcYtaQGOktFU-6" target="pSaJIkGriDd8Vi6PSLmC-53">
          <mxGeometry relative="1" as="geometry" />
        </mxCell>
        <mxCell id="vvp5qEtSRcYtaQGOktFU-6" value="Shutdown digital inputs" style="rounded=0;whiteSpace=wrap;html=1;" vertex="1" parent="1">
          <mxGeometry x="575" y="380" width="120" height="60" as="geometry" />
        </mxCell>
      </root>
    </mxGraphModel>
  </diagram>
</mxfile>
